<svg width="130" height="130" viewBox="0 0 130 130" fill="none" xmlns="http://www.w3.org/2000/svg">
<g filter="url(#filter0_d_603_2)">
<path d="M43.5938 76.4922C43.1094 76.4922 42.6953 76.3203 42.3516 75.9766C42.0078 75.6328 41.8359 75.2188 41.8359 74.7344V74.7109L41.8125 45.2734V45.25C41.8125 44.7969 41.9766 44.3906 42.3047 44.0312C42.6484 43.6719 43.0312 43.4922 43.4531 43.4922C44.0312 43.4922 44.4844 43.6641 44.8125 44.0078C45.1562 44.3359 45.3281 44.75 45.3281 45.25V45.2734L45.3516 74.7109V74.7344C45.3516 75.2188 45.1797 75.6328 44.8359 75.9766C44.4922 76.3203 44.0781 76.4922 43.5938 76.4922ZM80.3072 64.5391C80.6978 64.5391 81.065 64.7109 81.4088 65.0547C81.7681 65.3984 81.9478 65.7578 81.9478 66.1328C81.9478 66.5234 81.8931 66.8281 81.7838 67.0469C81.0338 68.7344 79.9634 70.2969 78.5728 71.7344C77.1978 73.1719 75.5572 74.3281 73.6509 75.2031C71.7447 76.0781 69.6119 76.5156 67.2525 76.5156C64.9244 76.5156 62.815 76.0859 60.9244 75.2266C59.0494 74.3672 57.44 73.1797 56.0963 71.6641C54.7681 70.1328 53.7447 68.3672 53.0259 66.3672C52.3228 64.3516 51.9713 62.1875 51.9713 59.875C51.9713 57.5938 52.3306 55.4688 53.0494 53.5C53.7681 51.5156 54.7994 49.7812 56.1431 48.2969C57.4869 46.7969 59.0884 45.625 60.9478 44.7812C62.8228 43.9375 64.9009 43.5156 67.1822 43.5156C69.4947 43.5156 71.5963 43.9219 73.4869 44.7344C75.3931 45.5469 77.0416 46.6328 78.4322 47.9922C79.8384 49.3516 80.9322 50.8594 81.7134 52.5156C81.8384 52.7656 81.9009 53.0312 81.9009 53.3125C81.9009 53.7656 81.7369 54.1719 81.4088 54.5312C81.0963 54.875 80.7681 55.0469 80.4244 55.0469C79.4869 55.0469 78.8619 54.7031 78.5494 54.0156C77.6275 52.0625 76.1822 50.4141 74.2134 49.0703C72.2447 47.7109 69.9009 47.0312 67.1822 47.0312C64.7759 47.0312 62.6978 47.6094 60.9478 48.7656C59.1978 49.9219 57.8463 51.4766 56.8931 53.4297C55.9556 55.3672 55.4869 57.5391 55.4869 59.9453C55.4869 62.3516 55.9556 64.5469 56.8931 66.5312C57.8306 68.5 59.1744 70.0703 60.9244 71.2422C62.69 72.3984 64.7838 72.9766 67.2056 72.9766C69.0181 72.9766 70.6666 72.6406 72.1509 71.9688C73.6509 71.2812 74.9478 70.375 76.0416 69.25C77.1509 68.125 77.9947 66.9141 78.5728 65.6172C78.8853 64.8984 79.4634 64.5391 80.3072 64.5391Z" fill="url(#paint0_linear_603_2)"/>
</g>
<g filter="url(#filter1_d_603_2)">
<rect x="26.5" y="26.5" width="69" height="69" rx="3.5" stroke="url(#paint1_linear_603_2)" shape-rendering="crispEdges"/>
</g>
<defs>
<filter id="filter0_d_603_2" x="15.8125" y="17.4922" width="100.135" height="93.0234" filterUnits="userSpaceOnUse" color-interpolation-filters="sRGB">
<feFlood flood-opacity="0" result="BackgroundImageFix"/>
<feColorMatrix in="SourceAlpha" type="matrix" values="0 0 0 0 0 0 0 0 0 0 0 0 0 0 0 0 0 0 127 0" result="hardAlpha"/>
<feOffset dx="4" dy="4"/>
<feGaussianBlur stdDeviation="15"/>
<feComposite in2="hardAlpha" operator="out"/>
<feColorMatrix type="matrix" values="0 0 0 0 0.741176 0 0 0 0 0 0 0 0 0 1 0 0 0 0.25 0"/>
<feBlend mode="normal" in2="BackgroundImageFix" result="effect1_dropShadow_603_2"/>
<feBlend mode="normal" in="SourceGraphic" in2="effect1_dropShadow_603_2" result="shape"/>
</filter>
<filter id="filter1_d_603_2" x="0" y="0" width="130" height="130" filterUnits="userSpaceOnUse" color-interpolation-filters="sRGB">
<feFlood flood-opacity="0" result="BackgroundImageFix"/>
<feColorMatrix in="SourceAlpha" type="matrix" values="0 0 0 0 0 0 0 0 0 0 0 0 0 0 0 0 0 0 127 0" result="hardAlpha"/>
<feOffset dx="4" dy="4"/>
<feGaussianBlur stdDeviation="15"/>
<feComposite in2="hardAlpha" operator="out"/>
<feColorMatrix type="matrix" values="0 0 0 0 0.741176 0 0 0 0 0 0 0 0 0 1 0 0 0 0.25 0"/>
<feBlend mode="normal" in2="BackgroundImageFix" result="effect1_dropShadow_603_2"/>
<feBlend mode="normal" in="SourceGraphic" in2="effect1_dropShadow_603_2" result="shape"/>
</filter>
<linearGradient id="paint0_linear_603_2" x1="70.3562" y1="21.3774" x2="113.467" y2="60.7661" gradientUnits="userSpaceOnUse">
<stop offset="0.286458" stop-color="#93EFD9"/>
<stop offset="1" stop-color="#ED93EF"/>
<stop offset="1" stop-color="#ED93EF"/>
</linearGradient>
<linearGradient id="paint1_linear_603_2" x1="73.716" y1="-8.33956" x2="147.507" y2="50.2859" gradientUnits="userSpaceOnUse">
<stop offset="0.286458" stop-color="#93EFD9"/>
<stop offset="1" stop-color="#ED93EF"/>
<stop offset="1" stop-color="#ED93EF"/>
</linearGradient>
</defs>
</svg>
